<svg xmlns="http://www.w3.org/2000/svg" viewBox="0 0 144 144" width="144pt" height="144pt" preserveAspectRatio="xMidYMid meet">
  <rect width="144" height="144" rx="24" ry="24" fill="#1565C0"/>
  <g transform="translate(0,144) scale(0.1,-0.1)" fill="#FFFFFF" stroke="none">
    <path d="M499 1318 c-39 -20 -65 -43 -171 -157 -38 -40 -68 -79 -68 -88 0 -8 -13 -32 -28 -52 -47 -59 -62 -100 -62 -164 0 -51 -4 -65 -30 -97 -37 -47 -42 -120 -10 -172 11 -18 20 -48 20 -67 0 -42 19 -111 37 -132 7 -8 13 -20 13 -26 0 -6 6 -13 13 -16 7 -2 21 -22 32 -43 30 -59 104 -127 161 -148 27 -10 54 -24 59 -30 57 -65 185 -62 256 6 17 16 19 44 21 375 l3 357 53 16 c29 8 66 29 84 45 29 28 37 30 107 30 75 0 76 0 79 27 3 26 2 27 -55 30 l-58 3 -5 70 c-5 68 -6 70 -32 73 -27 3 -28 2 -28 -43 0 -44 -25 -112 -52 -145 -7 -8 -26 -21 -41 -28 -58 -25 -57 -28 -57 168 l0 180 -40 25 c-50 31 -144 33 -201 3z m167 -59 c11 -9 14 -63 14 -296 l0 -285 -47 7 c-52 8 -103 30 -103 45 0 6 -13 10 -30 10 -26 0 -30 -4 -30 -28 0 -49 53 -81 150 -91 l55 -6 3 -216 2 -216 -26 -18 c-48 -32 -94 -30 -140 3 -23 17 -62 39 -86 51 -50 23 -89 58 -120 110 -11 20 -26 41 -32 46 -23 21 -56 68 -56 81 0 22 29 16 69 -15 20 -15 47 -31 61 -35 14 -4 39 -25 55 -48 37 -51 124 -99 175 -95 29 2 35 6 38 27 3 24 -2 27 -60 44 -35 10 -68 19 -74 21 -6 2 -14 13 -17 25 -4 17 0 22 21 26 53 11 94 63 71 90 -17 21 -32 17 -69 -16 -34 -30 -92 -41 -105 -20 -3 6 -13 10 -21 10 -22 0 -127 83 -163 129 -17 21 -31 49 -31 60 0 24 36 101 48 101 21 0 70 -41 87 -73 15 -28 26 -37 46 -37 16 0 29 7 33 16 12 31 -57 116 -112 139 -18 8 -35 22 -39 31 -10 26 27 120 58 150 16 15 29 34 29 42 0 26 48 99 69 105 31 8 68 -3 91 -28 20 -22 21 -24 6 -60 -9 -21 -16 -62 -16 -91 0 -47 4 -59 32 -90 23 -25 39 -34 58 -32 37 4 37 37 0 73 -33 32 -38 65 -15 105 8 14 14 43 15 65 0 46 -28 84 -79 105 -38 15 -39 23 -3 48 70 48 151 62 188 31z"/>
    <path d="M800 1311 c0 -24 5 -31 30 -36 50 -11 107 -43 141 -81 19 -20 55 -58 82 -85 27 -28 47 -58 47 -71 0 -12 13 -36 29 -53 34 -36 61 -103 61 -150 0 -28 -5 -37 -30 -50 -37 -19 -94 -19 -110 0 -7 8 -18 15 -25 15 -7 0 -18 7 -25 15 -17 20 -84 19 -131 -2 -31 -15 -39 -23 -39 -45 0 -24 4 -28 28 -28 15 0 36 7 46 15 28 21 39 19 89 -15 37 -24 55 -30 100 -30 34 0 67 7 87 18 30 17 31 17 50 -8 27 -35 25 -81 -5 -114 -13 -14 -33 -26 -44 -26 -30 0 -71 -20 -119 -58 -38 -30 -47 -33 -75 -25 -31 8 -32 11 -35 65 -3 57 -15 74 -47 62 -23 -9 -35 -68 -22 -110 8 -25 22 -42 49 -57 21 -12 38 -25 38 -30 0 -12 -63 -47 -86 -47 -27 0 -38 -35 -18 -55 10 -10 25 -12 47 -8 39 8 44 11 130 100 69 73 113 103 149 103 10 0 18 -6 18 -12 0 -27 -27 -89 -47 -110 -12 -13 -38 -48 -58 -78 -41 -61 -61 -77 -124 -103 -25 -10 -56 -29 -69 -43 -15 -14 -36 -24 -53 -24 -45 0 -59 -10 -59 -41 0 -28 2 -29 48 -29 39 0 58 6 91 31 24 17 62 39 85 49 49 20 131 95 140 126 4 12 17 33 31 48 45 49 75 122 75 185 0 20 9 51 20 69 32 52 27 125 -10 172 -26 33 -30 46 -30 99 0 68 -21 121 -64 162 -14 13 -26 32 -26 42 0 24 -37 71 -124 160 -80 82 -139 117 -196 117 -38 0 -40 -2 -40 -29z"/>
  </g>
</svg>